<svg xmlns="http://www.w3.org/2000/svg" viewBox="0 0 66.65 50.17">
  <defs>
    <style>
      .cls-1 {
        isolation: isolate;
      }

      .cls-2 {
        fill: #4367b1;
      }

      .cls-3 {
        fill: none;
      }

      .cls-4 {
        fill: #f0546a;
        mix-blend-mode: multiply;
      }
    </style>
  </defs>
  <title>hero-icon</title>
  <g class="cls-1">
    <g id="type">
      <path class="cls-2" d="M150.43,185v39.5h39.5V185h-39.5Zm4,2.57h1.24a1,1,0,0,1,1,1V190a1,1,0,0,1-1,1h-1.24a1,1,0,0,1-1-1v-1.46A1,1,0,0,1,154.42,187.59Zm0,27.07h17.7a1,1,0,0,1,1,1v0.7a1,1,0,0,1-1,1h-17.7a1,1,0,0,1-1-1v-0.7A1,1,0,0,1,154.42,214.66Zm30.88,7.15H154.42a1,1,0,0,1-1-1v-0.7a1,1,0,0,1,1-1h30.88a1,1,0,0,1,1,1v0.7A1,1,0,0,1,185.29,221.81Zm0.64-9.86H154.42a1,1,0,0,1-1-1V193.68a1,1,0,0,1,1-1h31.51a1,1,0,0,1,1,1v17.27A1,1,0,0,1,185.93,211.95Z" transform="translate(-150.43 -185.02)"/>
      <rect id="_Path_" data-name="&lt;Path&gt;" class="cls-3" x="66.56" y="10.69" height="39.49"/>
      <path id="_Compound_Path_" data-name="&lt;Compound Path&gt;" class="cls-4" d="M197.84,218.65a6.22,6.22,0,1,0-6.22-6.22A6.22,6.22,0,0,0,197.84,218.65Zm-1.62-9,4.72,2.74-4.72,2.74V209.7Z" transform="translate(-150.43 -185.02)"/>
      <path class="cls-4" d="M177.58,194.91v39.5h39.5v-39.5h-39.5Zm3.83,29.64h17.7a1,1,0,0,1,1,1v0.7a1,1,0,0,1-1,1h-17.7a1,1,0,0,1-1-1v-0.7A1,1,0,0,1,181.41,224.55Zm30.88,7.15H181.41a1,1,0,0,1-1-1V230a1,1,0,0,1,1-1h30.88a1,1,0,0,1,1,1v0.7A1,1,0,0,1,212.29,231.7Zm0.65-9.86H181.42a1,1,0,0,1-1-1V203.57a1,1,0,0,1,1-1h31.51a1,1,0,0,1,1,1v17.27A1,1,0,0,1,212.94,221.84Z" transform="translate(-150.43 -185.02)"/>
    </g>
  </g>
</svg>
